Source: The.Hangover.UNRATED.1080p.BluRay.x264-REFiNED

Poster: 
http://bayimg.com/image/naeibaacp.jpg

Icon: 
http://bayimg.com/image/naeidaacp.jpg

I highly recommend playing h264 HD videos with VLC get it here: 
http://www.videolan.org/

I do not recommend playing with QuickTime/iIunes as QuickTime/iIunes is a dog and sucks at h264 decoding.  Only play with QuickTime/iIunes if you have a really powerful new PC.  VLC uses like 1/4 of the cpu power to play the same video.

Plays fine on PS3, Xbox 360, Popcorn Hour, old pentium 4's (with VLC), and Apple TV most likely.

Snaps: 
http://hiderefer.com/?http://img696.imageshack.us/img696/7908/vlcsnap2009112211h41m38.png 
http://hiderefer.com/?http://img109.imageshack.us/img109/6523/vlcsnap2009112211h41m47.png 
http://hiderefer.com/?http://img25.imageshack.us/img25/379/vlcsnap2009112211h42m29.png 
http://hiderefer.com/?http://img21.imageshack.us/img21/6795/vlcsnap2009112211h42m42.png 
http://hiderefer.com/?http://img109.imageshack.us/img109/4049/vlcsnap2009112211h42m51.png 
http://hiderefer.com/?http://img19.imageshack.us/img19/9923/vlcsnap2009112211h43m17.png 
http://hiderefer.com/?http://img9.imageshack.us/img9/3088/vlcsnap2009112211h43m33.png 
http://hiderefer.com/?http://img696.imageshack.us/img696/2924/vlcsnap2009112211h44m00.png 
http://hiderefer.com/?http://img21.imageshack.us/img21/306/vlcsnap2009112211h44m19.png 
http://hiderefer.com/?http://img4.imageshack.us/img4/1482/vlcsnap2009112211h39m11.png 
http://hiderefer.com/?http://img696.imageshack.us/img696/6495/vlcsnap2009112211h39m27.png 
http://hiderefer.com/?http://img130.imageshack.us/img130/9633/vlcsnap2009112211h39m35.png 
http://hiderefer.com/?http://img4.imageshack.us/img4/3782/vlcsnap2009112211h39m44d.png 
http://hiderefer.com/?http://img163.imageshack.us/img163/8952/vlcsnap2009112211h39m59.png 
http://hiderefer.com/?http://img19.imageshack.us/img19/364/vlcsnap2009112211h40m10.png 
http://hiderefer.com/?http://img69.imageshack.us/img69/1057/vlcsnap2009112211h40m19.png 
http://hiderefer.com/?http://img21.imageshack.us/img21/4684/vlcsnap2009112211h40m37.png 
http://hiderefer.com/?http://img21.imageshack.us/img21/5837/vlcsnap2009112211h40m54.png 
http://hiderefer.com/?http://img26.imageshack.us/img26/7947/vlcsnap2009112211h41m02.png 
http://hiderefer.com/?http://img682.imageshack.us/img682/347/vlcsnap2009112211h41m22.png

Specifications:

Video
Format : AVC
Format/Info : Advanced Video Codec
Format profile : High@L3.1
Format settings, CABAC : No
Format settings, ReFrames : 5 frames
Codec ID : avc1
Codec ID/Info : Advanced Video Coding
Duration : 1h 47mn
Bit rate mode : Variable
Bit rate : 1 664 Kbps
Width : 1 280 pixels
Height : 534 pixels
Display aspect ratio : 2.35
Frame rate mode : Variable
Frame rate : 23.966 fps
Minimum frame rate : 4.795 fps
Maximum frame rate : 23.976 fps
Original frame rate : 23.976 fps
Resolution : 24 bits
Colorimetry : 4:2:0
Scan type : Progressive
Bits/(Pixel*Frame) : 0.102
Stream size : 1.25 GiB (91%)
Writing library : x264 core 78 r1318 fe83a90
Encoding settings : cabac=0 / ref=5 / deblock=1:0:0 / analyse=0x3:0x133 / me=umh / subme=9 / psy=1 / psy_rd=1.0:0.0 / mixed_ref=1 / me_range=16 / chroma_me=1 / trellis=0 / 8x8dct=1 / cqm=0 / deadzone=21,11 / chroma_qp_offset=-2 / threads=3 / nr=0 / decimate=1 / mbaff=0 / constrained_intra=0 / bframes=3 / b_pyramid=0 / b_adapt=1 / b_bias=0 / direct=2 / wpredb=32 / keyint=250 / keyint_min=25 / scenecut=40 / rc_lookahead=40 / rc=2pass / mbtree=1 / bitrate=1664 / ratetol=2.4 / qcomp=0.60 / qpmin=10 / qpmax=51 / qpstep=4 / cplxblur=20.0 / qblur=0.5 / ip_ratio=1.41 / aq=1:1.00
Language : English
Encoded date : UTC 1970-01-01 00:00:00
Tagged date : UTC 1970-01-01 00:00:00

Audio
Format : AAC
Format/Info : Advanced Audio Codec
Format version : Version 4
Format profile : LC
Format settings, SBR : No
Codec ID : 40
Duration : 1h 47mn
Bit rate mode : Variable
Bit rate : 160 Kbps
Channel(s) : 2 channels
Channel positions : L R
Sampling rate : 48.0 KHz
Resolution : 16 bits
Stream size : 123 MiB (9%)
Encoded date : UTC 1970-01-01 00:00:00
Tagged date : UTC 1970-01-01 00:00:00

-HR

